<?xml version="1.0" standalone="no"?>
<!DOCTYPE svg PUBLIC "-//W3C//DTD SVG 20010904//EN"
 "http://www.w3.org/TR/2001/REC-SVG-20010904/DTD/svg10.dtd">
<svg version="1.0" xmlns="http://www.w3.org/2000/svg"
 width="700.000000pt" height="700.000000pt" viewBox="0 0 700.000000 700.000000"
 preserveAspectRatio="xMidYMid meet">
<metadata>
Created by potrace 1.14, written by Peter Selinger 2001-2017
</metadata>
<g transform="translate(0.000000,700.000000) scale(0.100000,-0.100000)"
fill="#000000" stroke="none">
<path d="M3488 6605 c-2 -2 -30 -5 -63 -6 -136 -4 -315 -48 -425 -104 -29 -15
-213 -119 -409 -233 -519 -299 -630 -363 -896 -517 -309 -177 -373 -216 -470
-283 -328 -226 -458 -359 -517 -526 -10 -27 -25 -97 -35 -155 -15 -94 -17
-230 -18 -1243 -1 -626 2 -1171 7 -1210 13 -128 20 -171 29 -195 5 -13 7 -23
4 -23 -2 0 7 -26 19 -58 95 -243 358 -445 1166 -900 19 -10 177 -101 350 -202
173 -100 335 -194 360 -208 25 -14 117 -67 205 -118 246 -142 332 -177 505
-209 89 -16 315 -14 415 5 204 38 218 45 743 348 211 122 402 233 425 246 23
13 67 38 97 56 30 18 73 43 95 55 22 12 56 31 75 43 19 11 58 33 85 47 28 15
57 33 66 41 8 8 18 14 21 14 11 0 346 198 424 250 204 137 394 295 456 380 82
111 120 230 136 420 9 114 9 2239 -1 2361 -8 112 -29 209 -62 290 -85 211
-329 403 -1002 790 -214 122 -416 240 -451 261 -34 21 -64 38 -67 38 -2 0 -42
22 -87 49 -46 27 -99 58 -118 69 -40 22 -86 49 -325 187 -235 135 -331 181
-421 199 -10 3 -40 9 -67 15 -26 6 -87 14 -135 17 -48 3 -92 7 -99 9 -6 2 -13
2 -15 0z m247 -476 c33 -12 81 -34 108 -50 26 -16 49 -29 51 -29 3 0 112 -62
243 -138 200 -117 330 -192 624 -360 19 -11 131 -76 249 -144 118 -68 253
-146 300 -173 71 -41 269 -169 305 -197 5 -4 44 -34 86 -67 125 -99 178 -185
195 -317 5 -33 8 -563 8 -1179 0 -1037 -2 -1125 -18 -1185 -37 -138 -94 -201
-332 -367 -90 -63 -215 -139 -399 -244 -33 -19 -68 -38 -77 -44 -207 -120
-442 -256 -477 -277 -25 -15 -57 -33 -71 -41 -14 -7 -175 -100 -359 -206 -183
-106 -356 -204 -385 -216 -88 -40 -169 -54 -306 -51 -188 5 -217 16 -530 198
-201 116 -491 285 -519 300 -329 185 -865 501 -961 566 -281 191 -348 273
-367 449 -9 88 -10 2197 0 2284 10 97 41 176 93 238 51 61 305 246 459 333 44
26 190 110 325 188 135 78 265 154 290 168 25 14 104 59 175 100 72 42 198
115 280 162 83 48 222 129 310 180 88 51 171 97 185 102 56 23 159 45 220 47
36 1 66 4 67 5 8 8 177 -19 228 -35z"/>
<path d="M3497 4593 c-1 -1 -34 -3 -72 -4 -388 -13 -772 -286 -932 -662 -124
-293 -114 -625 29 -911 84 -168 185 -287 353 -414 66 -50 293 -156 325 -151 3
0 17 -4 31 -10 15 -5 44 -12 66 -16 21 -3 50 -8 63 -11 35 -7 238 -7 280 0
214 37 375 104 525 216 64 48 200 197 249 271 69 107 134 257 151 349 3 14 7
34 9 45 14 73 18 119 18 204 0 54 -2 111 -6 127 -3 16 -8 49 -11 73 -13 92
-75 258 -135 361 -39 65 -127 174 -189 233 -177 166 -380 262 -623 292 -58 7
-128 12 -131 8z m160 -457 c133 -35 210 -80 313 -185 82 -84 137 -181 167
-293 21 -83 21 -234 -1 -318 -66 -253 -284 -451 -536 -487 -207 -30 -396 29
-549 172 -126 118 -199 280 -205 453 -9 287 158 532 439 642 93 37 263 44 372
16z"/>
</g>
</svg>
